HIERARCHY
ROOT root
{
	OFFSET 0.000000 0.000000 0.000000
	CHANNELS 6 Xposition Yposition Zposition Zrotation Yrotation Xrotation
	JOINT lhip
	{
		OFFSET 0.058581 -0.082280 -0.017664
		CHANNELS 3 Zrotation Yrotation Xrotation
		JOINT lknee
		{
			OFFSET 0.043451 -0.386469 0.008037
			CHANNELS 3 Zrotation Yrotation Xrotation
			JOINT lankle
			{
				OFFSET -0.014790 -0.426874 -0.037428
				CHANNELS 3 Zrotation Yrotation Xrotation
				JOINT ltoe
				{
					OFFSET 0.041054 -0.060286 0.122042
					CHANNELS 3 Zrotation Yrotation Xrotation
					End Site
					{
						OFFSET 0.000000 0.000000 0.000000
					}
				}
			}
		}
	}
	JOINT rhip
	{
		OFFSET -0.060310 -0.090513 -0.013543
		CHANNELS 3 Zrotation Yrotation Xrotation
		JOINT rknee
		{
			OFFSET -0.043257 -0.383688 -0.004843
			CHANNELS 3 Zrotation Yrotation Xrotation
			JOINT rankle
			{
				OFFSET 0.019056 -0.420046 -0.034562
				CHANNELS 3 Zrotation Yrotation Xrotation
				JOINT rtoe
				{
					OFFSET -0.034840 -0.062106 0.130323
					CHANNELS 3 Zrotation Yrotation Xrotation
					End Site
					{
						OFFSET 0.000000 0.000000 0.000000
					}
				}
			}
		}
	}
	JOINT lowerback
	{
		OFFSET 0.004439 0.124404 -0.038385
		CHANNELS 3 Zrotation Yrotation Xrotation
		JOINT upperback
		{
			OFFSET 0.004488 0.137956 0.026820
			CHANNELS 3 Zrotation Yrotation Xrotation
			JOINT chest
			{
				OFFSET -0.002265 0.056032 0.002855
				CHANNELS 3 Zrotation Yrotation Xrotation
				JOINT lowerneck
				{
					OFFSET -0.013390 0.211636 -0.033468
					CHANNELS 3 Zrotation Yrotation Xrotation
					JOINT upperneck
					{
						OFFSET 0.010113 0.088937 0.050410
						CHANNELS 3 Zrotation Yrotation Xrotation
						End Site
						{
							OFFSET 0.000000 0.000000 0.000000
						}
					}
				}
				JOINT lclavicle
				{
					OFFSET 0.071702 0.114000 -0.018898
					CHANNELS 3 Zrotation Yrotation Xrotation
					JOINT lshoulder
					{
						OFFSET 0.122921 0.045205 -0.019046
						CHANNELS 3 Zrotation Yrotation Xrotation
						JOINT lelbow
						{
							OFFSET 0.255332 -0.015649 -0.022946
							CHANNELS 3 Zrotation Yrotation Xrotation
							JOINT lwrist
							{
								OFFSET 0.265709 0.012698 -0.007375
								CHANNELS 3 Zrotation Yrotation Xrotation
								End Site
								{
									OFFSET 0.000000 0.000000 0.000000
								}
							}
						}
					}
				}
				JOINT rclavicle
				{
					OFFSET -0.082954 0.112472 -0.023707
					CHANNELS 3 Zrotation Yrotation Xrotation
					JOINT rshoulder
					{
						OFFSET -0.113228 0.046853 -0.008472
						CHANNELS 3 Zrotation Yrotation Xrotation
						JOINT relbow
						{
							OFFSET -0.260127 -0.014369 -0.031269
							CHANNELS 3 Zrotation Yrotation Xrotation
							JOINT rwrist
							{
								OFFSET -0.269108 0.006794 -0.006027
								CHANNELS 3 Zrotation Yrotation Xrotation
								End Site
								{
									OFFSET 0.000000 0.000000 0.000000
								}
							}
						}
					}
				}
			}
		}
	}
}
MOTION
Frames: 17
Frame Time: 0.033333
1.257688 0.161642 1.000615 -89.179832 -2.173539 90.479669 3.060025 -4.147009 -21.433657 -6.357134 2.906077 22.297953 -0.633730 9.154271 -12.676512 0.000000 -0.000000 0.000000 1.834749 -3.016122 7.605742 1.287048 4.485396 9.237784 -0.930771 -4.850319 -22.286639 0.000000 -0.000000 0.000000 -0.088974 4.229256 13.635420 1.324544 -2.634684 -4.970027 -0.091896 -0.783748 4.230134 -0.533383 1.150257 -10.030541 -2.828588 -6.358977 5.390238 -25.707003 9.546561 -0.043365 -62.005056 -2.316506 9.847977 17.381543 -37.498904 2.663883 4.772679 -13.491834 -19.196480 26.559870 -2.243894 -1.051945 55.993225 5.765848 13.753857 -12.286342 23.691925 -4.675132 -2.754425 5.305768 -13.575874 
1.245129 0.159566 0.997513 -89.799478 -1.874588 90.395401 3.855216 -3.876122 -22.459742 -5.753748 2.847168 17.791441 -2.310801 8.780631 -10.580152 0.000000 -0.000000 0.000000 1.781394 -2.899050 8.641091 1.533240 4.993357 9.156020 -0.756955 -5.076654 -22.900040 0.000000 -0.000000 0.000000 0.180607 4.215819 13.790791 1.277864 -2.808712 -4.055845 -0.082206 -0.846746 4.189329 -0.709723 1.996719 -11.311412 -2.689604 -6.240671 5.517352 -25.543259 9.203245 0.221011 -62.422430 -2.217884 9.746818 17.946310 -37.490440 1.858049 5.350441 -13.309733 -19.585240 26.494275 -1.671444 -0.814986 55.890611 6.095817 13.909169 -12.298262 23.596490 -4.946933 -2.430701 5.310204 -13.519693 
1.230411 0.156494 0.994428 -90.784006 -1.811894 90.180803 4.317138 -3.604670 -22.824017 -5.336801 2.268208 13.044122 -3.199120 8.361544 -8.992282 0.000000 -0.000000 0.000000 1.306951 -3.220876 9.864865 1.506228 5.733326 9.151771 -0.828060 -4.685078 -23.550480 0.000000 -0.000000 0.000000 0.259706 4.622220 14.342781 1.113543 -2.584243 -3.881699 -0.037638 -0.664776 3.993870 -0.535904 2.058835 -11.114230 -2.708307 -6.460397 5.248904 -25.484647 9.264003 0.133328 -62.488349 -2.193073 10.158109 17.909196 -37.285971 2.014785 5.246857 -13.071047 -19.501923 26.394142 -1.980275 -0.957130 55.929866 6.027377 13.748177 -12.271067 23.287843 -4.817381 -2.397024 5.540036 -13.352896 
1.209499 0.152972 0.990219 -92.246768 -1.627458 90.080963 4.764489 -2.764054 -23.099883 -4.463832 1.973622 7.916114 -3.276830 7.671889 -8.124945 0.000000 -0.000000 0.000000 0.671536 -3.003142 11.400341 1.809412 6.747142 9.169544 -0.060445 -4.265619 -23.810104 0.000000 -0.000000 0.000000 0.059808 4.773412 14.442615 1.047765 -2.465238 -3.236307 0.020699 -0.414384 3.991990 -0.446004 2.871277 -11.576741 -2.805297 -6.329788 5.135502 -25.573968 9.491558 -0.056747 -62.478388 -1.985524 10.094471 18.144846 -36.824985 1.914812 5.390733 -13.224560 -19.680607 26.625662 -2.129339 -0.950024 55.651852 6.502185 13.665200 -12.237632 22.861709 -5.419116 -2.711429 5.676044 -13.095920 
1.196233 0.150077 0.987864 -93.214406 -1.346819 90.308857 5.007793 -2.113647 -23.351465 -3.881350 2.204233 5.254296 -3.354839 7.436897 -7.229391 0.000000 -0.000000 0.000000 0.211934 -3.017289 12.070142 2.074685 6.996133 9.142272 0.164587 -3.184987 -23.608995 0.000000 -0.000000 0.000000 0.200088 4.647699 15.012384 0.786997 -2.361615 -3.688466 0.152043 -0.096339 3.596229 -0.549784 3.156434 -11.540591 -2.644764 -6.117308 5.248942 -25.508219 9.769158 0.305246 -62.640374 -1.789904 9.781904 18.539623 -36.645204 2.044775 4.724180 -13.301283 -19.935871 26.478758 -2.284451 -0.681358 55.807999 6.508147 13.324051 -12.288613 22.629394 -5.202693 -2.068620 5.731134 -13.160334 
1.175425 0.145379 0.984524 -93.970614 -0.985223 90.366194 5.226401 -1.587113 -23.250443 -3.577987 2.886702 2.412379 -4.352287 7.437272 -6.984869 0.000000 -0.000000 0.000000 -0.326768 -3.380861 13.358789 2.175559 8.011259 9.104438 0.546873 -2.366221 -23.274064 0.000000 -0.000000 0.000000 0.293036 4.911416 14.377029 1.013355 -2.736386 -2.700880 0.131852 -0.573497 3.791249 -0.693259 3.998674 -12.034170 -2.708054 -5.701936 5.011814 -25.689117 9.527975 0.436258 -62.778849 -1.483734 9.528228 18.728438 -36.255277 1.099689 5.484229 -13.243148 -19.532098 26.367411 -1.653079 -0.616202 55.604656 6.812043 13.174825 -12.412587 22.534555 -6.267514 -2.413398 5.637722 -13.197062 
1.153846 0.139728 0.981978 -94.839529 -0.660969 91.030062 5.102771 -0.976261 -23.836772 -3.465946 4.248470 1.553746 -4.190525 7.496641 -7.189941 0.000000 -0.000000 0.000000 -0.876242 -3.096775 13.569545 2.493285 8.692458 9.865767 1.410478 -1.832544 -22.782995 0.000000 -0.000000 0.000000 0.351235 4.726154 14.242733 1.065549 -2.820767 -3.170641 0.015146 -0.545757 3.774414 -0.583482 4.415308 -12.509770 -2.908577 -5.243287 5.334117 -26.024731 10.138175 0.556157 -62.599759 -1.720542 9.238632 18.490231 -35.310889 0.888933 5.718339 -13.376075 -18.749380 26.674804 -2.275512 -1.102089 55.261333 6.856493 13.257619 -12.479438 22.273614 -7.093989 -3.092383 5.807463 -13.052829 
1.129001 0.132665 0.979938 -95.763435 -0.643440 91.571919 4.414004 -0.896373 -23.942962 -3.423145 4.744944 1.978090 -3.241415 7.772460 -6.794833 0.000000 -0.000000 0.000000 -1.945737 -2.794065 14.172667 2.807603 9.242507 10.306452 2.486525 -1.060813 -21.637075 0.000000 -0.000000 0.000000 0.029296 4.895446 13.746487 1.196863 -2.883965 -3.202382 0.027368 -0.838185 3.648262 -0.673357 4.686058 -12.491891 -3.104837 -4.514302 5.345331 -26.318569 10.396235 0.785868 -62.533878 -1.611175 9.036166 18.561400 -34.532077 0.525970 5.970150 -13.418200 -18.455882 26.909276 -2.707372 -1.223380 55.002028 6.907978 13.078454 -12.907651 22.009732 -8.134844 -3.155043 5.791356 -12.827376 
1.100909 0.123970 0.979085 -96.679855 -0.603699 92.066746 3.767055 -1.614984 -23.589673 -3.744634 4.329757 3.760085 -2.644546 7.995281 -6.918082 0.000000 -0.000000 0.000000 -3.007464 -2.547444 14.575456 2.871159 9.557004 11.458502 3.464190 -0.350049 -20.124240 0.000000 -0.000000 0.000000 0.045985 4.779042 13.286002 1.060465 -3.045120 -3.397308 -0.222815 -0.817418 3.557696 -0.825555 5.027292 -12.661114 -3.097055 -3.750545 5.190122 -26.474460 10.880787 0.373544 -62.423605 -1.070165 8.860496 18.774862 -34.000719 0.229304 5.730287 -13.032304 -18.274610 27.201517 -3.316616 -1.216923 54.977930 6.837628 12.592972 -13.665581 22.046193 -9.748050 -2.727481 5.437197 -13.516503 
1.062592 0.111903 0.979965 -97.398941 -0.864211 93.057730 2.727674 -3.494698 -23.676748 -3.588326 3.540241 5.715968 -0.231951 6.927628 -3.820920 0.000000 -0.000000 0.000000 -4.102374 -1.250650 14.169174 2.619382 9.491324 13.828878 5.293130 0.224493 -16.272253 0.000000 -0.000000 0.000000 -0.448213 4.952843 12.279253 1.150178 -3.026569 -3.446507 -0.447234 -1.012346 2.992911 -0.791853 4.761092 -12.442638 -3.209946 -2.921495 5.323093 -26.860036 11.257411 0.449765 -62.057115 -0.669319 8.977612 19.422348 -33.612407 -0.057963 5.108149 -12.729476 -18.737904 27.614134 -4.762563 -1.074013 55.132597 6.580885 12.162943 -15.714999 22.002922 -12.429535 -3.858446 5.232831 -14.676202 
1.028435 0.100847 0.982079 -97.385625 -1.156914 93.836952 2.218153 -5.773970 -23.828732 -3.731190 3.190482 7.413491 0.760112 7.049718 -1.273689 0.000000 -0.000000 0.000000 -5.337506 -0.930572 12.863378 2.463837 8.437273 17.377979 7.857024 1.944684 -11.253342 0.000000 -0.000000 0.000000 -0.989890 5.226291 10.455689 1.485882 -3.709899 -1.646839 -0.444172 -1.025591 1.766287 -1.768616 3.741215 -11.711718 -2.093085 -1.364812 4.141543 -26.836858 10.479377 0.485924 -62.386263 0.370357 10.042947 19.679646 -33.006167 0.219457 11.696463 -13.510431 -21.271287 27.652545 -5.457846 -0.987017 55.362274 6.513141 10.224633 -16.823667 21.369230 -14.372298 -6.701692 7.101298 -15.693454 
0.991786 0.089732 0.985484 -97.567618 -1.174471 93.913877 1.494497 -6.162891 -22.349394 -4.315506 2.901763 8.464214 2.904593 6.105656 -0.882884 0.000000 -0.000000 0.000000 -6.224625 -0.991567 10.524205 2.483973 8.563950 23.523534 10.129540 3.451083 -4.600379 0.000000 -0.000000 0.000000 -1.722006 5.345843 9.504762 1.959708 -3.405086 -1.214116 -0.111682 -0.581160 1.470795 -1.734726 2.848792 -10.453851 -2.317722 -1.070044 3.373581 -26.018191 10.755985 0.220689 -63.289191 0.117332 10.266967 19.697028 -32.854524 1.420213 9.897865 -13.586779 -21.459973 26.925456 -7.341647 -1.217186 56.427026 6.095158 8.922768 -19.971937 21.204137 -18.171954 -4.016300 7.476722 -18.190161 
0.957958 0.079317 0.989725 -97.535019 -1.271822 93.871204 0.403860 -6.461988 -20.816539 -4.715423 2.194170 9.362169 4.769708 5.949421 -1.960204 0.000000 -0.000000 0.000000 -6.882132 -0.647752 6.450506 2.816104 8.790948 31.659296 12.341455 4.338608 3.927078 0.000000 -0.000000 0.000000 -2.107638 4.639309 9.201598 2.259211 -3.370135 -0.781325 -0.376012 -1.316657 1.518791 -1.636206 3.522074 -11.397050 -2.614591 0.127008 3.475476 -26.392128 11.039985 -0.671432 -61.986663 1.336043 10.159254 19.496010 -34.956236 0.512663 11.539103 -13.612834 -22.303119 27.667953 -7.593537 -1.324955 56.106647 6.931809 8.485380 -22.628745 20.847141 -24.278729 -7.845922 6.689940 -19.969072 
0.926310 0.069418 0.993378 -97.084943 -1.363383 93.550331 -0.910043 -7.216538 -18.415875 -4.874165 1.418043 9.273193 6.847704 6.587972 -3.720551 0.000000 -0.000000 0.000000 -6.954536 0.508937 1.687424 3.592380 8.673652 40.715021 13.106700 2.812060 11.252794 0.000000 -0.000000 0.000000 -2.821616 3.959504 9.332158 2.804677 -2.974644 -0.739457 -0.347929 -1.837505 1.930720 -1.433082 3.800206 -12.096784 -3.169935 0.733082 3.510298 -26.103511 11.293948 -0.754469 -61.296018 0.479067 10.108109 19.010071 -36.536586 0.106883 12.671905 -13.853636 -22.120017 27.854792 -8.518400 -2.366825 55.930193 7.648452 8.337585 -25.843185 21.015100 -29.630496 -9.356958 6.046671 -20.468422 
0.895118 0.060541 0.995889 -95.741344 -1.704506 93.154083 -2.434700 -9.237652 -15.322271 -4.591756 0.030603 7.731190 6.992768 8.309659 -4.075008 0.000000 -0.000000 0.000000 -6.832923 1.609971 -2.925316 3.983213 7.481187 49.059933 12.959805 -1.875726 14.015102 0.000000 -0.000000 0.000000 -3.704982 3.136968 10.032758 3.342129 -3.314203 -2.122350 -0.161908 -1.954548 2.880391 -1.238066 4.357663 -11.402684 -3.803117 0.635535 3.454634 -23.723003 10.379639 2.075498 -62.876822 -1.493609 7.585056 18.799036 -37.665874 -0.478936 15.175368 -16.285209 -21.636208 26.223297 -8.474654 -3.352034 57.126345 6.532913 6.543066 -29.481874 22.914966 -36.025138 -12.214384 5.883884 -21.157815 
0.864973 0.052266 0.998903 -93.575606 -1.792838 92.758782 -4.141657 -8.769433 -12.357718 -4.432555 -3.138075 6.534152 7.062436 8.524803 -4.735256 0.000000 -0.000000 0.000000 -6.362942 1.671433 -7.163762 3.074882 5.419052 55.301302 10.211041 -5.351201 9.763527 0.000000 -0.000000 0.000000 -3.704576 1.612306 10.286062 3.426055 -3.554455 -2.474903 -0.259575 -2.618544 3.375475 -1.101267 4.818853 -11.061597 -4.306564 0.861371 3.510944 -22.951403 9.971725 2.511124 -61.833576 -2.088860 7.144371 18.651635 -39.626399 -0.270244 16.478957 -15.467076 -22.458413 25.310366 -8.944437 -3.788102 57.388456 6.581596 5.760124 -33.595743 24.952273 -40.651584 -15.496917 5.311535 -23.254458 
0.836086 0.044884 1.002966 -90.868511 -1.558925 92.238981 -5.183715 -8.588480 -9.265785 -4.224837 -5.389166 5.576484 6.918193 7.948992 -6.234484 0.000000 -0.000000 0.000000 -5.470047 2.224271 -10.811798 0.797297 2.489836 58.938424 7.875278 -8.376323 5.793302 0.000000 -0.000000 0.000000 -3.317030 0.177244 10.878624 3.529453 -3.763858 -3.158532 -0.456762 -3.261028 3.760500 -0.682372 5.269600 -10.505197 -4.852404 0.194716 3.509941 -22.555351 9.454123 2.958723 -60.665130 -3.407498 6.538105 19.826032 -40.498017 -1.641350 15.402928 -16.394366 -22.251493 24.733291 -9.413289 -4.382692 57.018093 6.877967 4.712120 -38.388582 25.807307 -44.740598 -17.802254 5.177851 -24.135788 
